<svg xmlns="http://www.w3.org/2000/svg" width="192" height="192" viewBox="0 0 192 192">
  <rect width="192" height="192" fill="#4285F4" rx="16" ry="16"/>
  <g transform="translate(48, 48)">
    <path d="M48 0C21.49 0 0 21.49 0 48s21.49 48 48 48 48-21.49 48-48S74.51 0 48 0zm0 75.43c-15.15 0-27.43-12.28-27.43-27.43S32.85 20.57 48 20.57 75.43 32.85 75.43 48 63.15 75.43 48 75.43z" fill="white"/>
    <path d="M67.74 42.97h-12.8v-12.8c0-3.86-3.14-7-7-7s-7 3.14-7 7v12.8h-12.8c-3.86 0-7 3.14-7 7s3.14 7 7 7h12.8v12.8c0 3.86 3.14 7 7 7s7-3.14 7-7v-12.8h12.8c3.86 0 7-3.14 7-7s-3.14-7-7-7z" fill="white"/>
  </g>
</svg>